<?xml version="1.0" encoding="UTF-8"?>
<svg width="26px" height="25px" viewBox="0 0 26 25" version="1.1" xmlns="http://www.w3.org/2000/svg" xmlns:xlink="http://www.w3.org/1999/xlink">
    <!-- Generator: Sketch 56.2 (81672) - https://sketch.com -->
    <title>MENU</title>
    <desc>Created with Sketch.</desc>
    <g id="Page-1" stroke="none" stroke-width="1" fill="none" fill-rule="evenodd">
        <g id="Artboard" transform="translate(-269.000000, -96.000000)" fill="#FFFFFF" fill-rule="nonzero">
            <path d="M282.476799,107 L280.159999,107 L280.159999,100.292801 L277.023999,107 L274.643199,107 L271.5968,100.292801 L271.5968,107 L269.2928,107 L269.2928,96.9520008 L272.416,96.9520008 L275.871999,104.6064 L279.404799,96.9520008 L282.476799,96.9520008 L282.476799,107 Z M294.945633,107 L285.038434,107 L285.038434,96.9520008 L294.856033,96.9520008 L294.856033,98.9744006 L287.419234,98.9744006 L287.419234,100.9584 L294.638433,100.9584 L294.638433,102.968 L287.419234,102.968 L287.419234,104.9776 L294.945633,104.9776 L294.945633,107 Z M280.057599,120 L277.535999,120 L271.6352,113.100801 L271.6352,120 L269.2928,120 L269.2928,109.952001 L271.9552,109.952001 L277.740799,116.6976 L277.740799,109.952001 L280.057599,109.952001 L280.057599,120 Z M294.504898,116.2752 C294.504898,118.7968 292.482498,120.1408 288.898499,120.1408 C285.557699,120.1408 283.381699,118.8224 283.381699,116.0448 C283.381699,115.6864 283.381699,109.952001 283.381699,109.952001 L285.826499,109.952001 C285.826499,109.952001 285.826499,115.9168 285.826499,116.0832 C285.826499,117.3504 286.863299,118.1952 289.000899,118.1952 C290.933699,118.1952 292.085699,117.4016 292.085699,116.0832 C292.085699,115.9296 292.085699,109.952001 292.085699,109.952001 L294.504898,109.952001 C294.504898,109.952001 294.504898,115.968 294.504898,116.2752 Z" id="MENU"></path>
        </g>
    </g>
</svg>