<?xml version="1.0" encoding="UTF-8"?>
<svg width="26px" height="25px" viewBox="0 0 26 25" version="1.1" xmlns="http://www.w3.org/2000/svg" xmlns:xlink="http://www.w3.org/1999/xlink">
    <!-- Generator: Sketch 56.2 (81672) - https://sketch.com -->
    <title>MENU Copy</title>
    <desc>Created with Sketch.</desc>
    <g id="Page-1" stroke="none" stroke-width="1" fill="none" fill-rule="evenodd">
        <g id="Artboard" transform="translate(-308.000000, -170.000000)" fill="#000000" fill-rule="nonzero">
            <path d="M321.476799,181 L319.159999,181 L319.159999,174.292801 L316.023999,181 L313.643199,181 L310.5968,174.292801 L310.5968,181 L308.2928,181 L308.2928,170.952001 L311.416,170.952001 L314.871999,178.6064 L318.404799,170.952001 L321.476799,170.952001 L321.476799,181 Z M333.945633,181 L324.038434,181 L324.038434,170.952001 L333.856033,170.952001 L333.856033,172.974401 L326.419234,172.974401 L326.419234,174.9584 L333.638433,174.9584 L333.638433,176.968 L326.419234,176.968 L326.419234,178.9776 L333.945633,178.9776 L333.945633,181 Z M319.057599,194 L316.535999,194 L310.6352,187.100801 L310.6352,194 L308.2928,194 L308.2928,183.952001 L310.9552,183.952001 L316.740799,190.6976 L316.740799,183.952001 L319.057599,183.952001 L319.057599,194 Z M333.504898,190.2752 C333.504898,192.7968 331.482498,194.1408 327.898499,194.1408 C324.557699,194.1408 322.381699,192.8224 322.381699,190.0448 C322.381699,189.6864 322.381699,183.952001 322.381699,183.952001 L324.826499,183.952001 C324.826499,183.952001 324.826499,189.9168 324.826499,190.0832 C324.826499,191.3504 325.863299,192.1952 328.000899,192.1952 C329.933699,192.1952 331.085699,191.4016 331.085699,190.0832 C331.085699,189.9296 331.085699,183.952001 331.085699,183.952001 L333.504898,183.952001 C333.504898,183.952001 333.504898,189.968 333.504898,190.2752 Z" id="MENU-Copy"></path>
        </g>
    </g>
</svg>